<svg width="12" height="11" viewBox="0 0 12 11" fill="none" xmlns="http://www.w3.org/2000/svg">
<g clip-path="url(#clip0_4_850)">
<path d="M11.8239 0.219917C11.7759 0.152024 11.7122 0.0966406 11.6384 0.0584183C11.5645 0.0201959 11.4826 0.000244141 11.3994 0.000244141C11.3162 0.000244141 11.2343 0.0201959 11.1604 0.0584183C11.0865 0.0966406 11.0229 0.152024 10.9749 0.219917L7.4749 4.59291L3.7899 9.19292L1.0239 5.74391C0.975863 5.67602 0.912245 5.62064 0.838382 5.58242C0.764518 5.5442 0.682564 5.52425 0.599397 5.52425C0.51623 5.52425 0.434277 5.5442 0.360413 5.58242C0.28655 5.62064 0.222932 5.67602 0.174897 5.74391C0.0608654 5.8969 -0.000732422 6.08261 -0.000732422 6.27341C-0.000732422 6.46422 0.0608654 6.64993 0.174897 6.80292L3.3619 10.7809C3.40993 10.8488 3.47355 10.9042 3.54741 10.9424C3.62128 10.9806 3.70323 11.0006 3.7864 11.0006C3.86956 11.0006 3.95152 10.9806 4.02538 10.9424C4.09925 10.9042 4.16286 10.8488 4.2109 10.7809L11.8239 1.28091C11.9384 1.12775 12.0003 0.941646 12.0003 0.750412C12.0003 0.559178 11.9384 0.373082 11.8239 0.219917Z" fill="#08A6E4"/>
</g>
<defs>
<clipPath id="clip0_4_850">
<rect width="12" height="11" fill="white"/>
</clipPath>
</defs>
</svg>
