<svg width="22" height="18" viewBox="0 0 22 18" fill="none" xmlns="http://www.w3.org/2000/svg">
<path d="M19.8001 0H2.20007C1.61171 0.0089557 1.05089 0.250825 0.640559 0.672591C0.230227 1.09436 0.00385929 1.66161 0.0110745 2.25L7.45349e-05 15.75C-0.00474054 16.3396 0.223912 16.9071 0.636105 17.3287C1.0483 17.7502 1.61054 17.9916 2.20007 18H19.8001C20.3896 17.9916 20.9519 17.7502 21.364 17.3287C21.7762 16.9071 22.0049 16.3396 22.0001 15.75V2.25C22.0049 1.66043 21.7762 1.0929 21.364 0.671341C20.9519 0.24978 20.3896 0.00843324 19.8001 0ZM19.8001 15.75H2.20007V4.5L11.0001 10.125L19.8001 4.5V15.75ZM11.0001 7.875L2.20007 2.25H19.8001L11.0001 7.875Z" fill="#08A6E4"/>
</svg>
